<?xml version="1.0" encoding="UTF-8"?>
<svg id="Layer_2" data-name="Layer 2" xmlns="http://www.w3.org/2000/svg" viewBox="0 0 512 512">
  <defs>
    <style>
      .cls-1 {
        fill: #000202;
      }

      .cls-2 {
        fill: #00d890;
      }
    </style>
  </defs>
  <g id="Layer_1-2" data-name="Layer 1">
    <g id="IJNXYn">
      <g>
        <path class="cls-2" d="M0,512V0h512v512H0ZM158.75,303.76l-37.57-56.23,35.09-39c-8.6-.45-16.42-.43-24.85-.29l-38.45,42.53-.3-42.58-20.66.02.02,95.86,20.71-.15.04-25.06,13.69-15.25,27.66,40.4,24.62-.24ZM262.48,303.86l-.02-95.83h-19.46s0,95.99,0,95.99l19.48-.15ZM393.43,303.95l19.63.07-.22-42.11c-.04-6.68-1.86-14.53-6.23-19.54-11.09-12.72-30.5-13.17-43.22-1.17l-.35-33.23-19.43.19v95.68s19.49.18,19.49.18l.34-40.32c.09-10.15,8.95-16.65,18.65-14.88,6.02,1.09,11.02,6.5,11.07,13.25l.28,41.88ZM431.49,226.9c6.26-.74,9.1-6.31,8.19-11.31-.87-4.73-5.35-8.1-10.69-7.49-5.6.65-9.06,5.37-8.57,10.34s4.91,9.18,11.07,8.45ZM211.82,292.67c2.81,13.14,13.61,10.12,23.75,10.37l-.18-16.02c-2.32-.49-4.73-1.21-6.48-2.24l-.3-29.76c-.09-9.42-6.06-17.43-14.78-20.58-17.67-6.38-48.03-2.77-49.3,20.01h18.54c2.07-6.97,8.27-9.06,15.08-8.48,3.15.27,7.06,1.96,8.78,3.78,2.54,2.7,2.93,6.64,2.09,9.95-13.78-.08-38.61-1.62-44.6,14.4-3.11,8.3-2.24,17.03,3.62,22.75,10.05,9.81,34.38,10.47,43.77-4.17ZM324.17,299.54c11.97-5.78,16.17-21.49,7.37-31.1-4.25-4.64-12.01-6.74-18-7.62l-18.5-2.72c-2.02-.3-4.83-2.9-4.96-4.74-.11-1.52,1.29-4.61,2.78-5.5,7.59-4.53,20.81-3.29,24.23,6.63l17.91-.04c-1.53-23.06-32.88-26.71-49.92-19.56-11.6,4.87-17.45,18.2-10.99,29.21,3.06,5.23,9.74,8,15.6,8.96l21.62,3.53c2.67.44,5.51,2.66,5.78,4.96,1.03,8.68-13.11,10.44-22.16,6.79-3.54-1.43-5.5-4.95-6.84-8.62l-17.73-.09c-.36,8.9,5.31,16.54,13.73,20.31,12.44,5.57,27.25,5.8,40.07-.39ZM440.01,303.8l-.03-70.41-19.46.02-.06,70.34,19.55.05Z"/>
        <path class="cls-1" d="M158.75,303.76l-24.62.24-27.66-40.4-13.69,15.25-.04,25.06-20.71.15-.02-95.86,20.66-.02.3,42.58,38.45-42.53c8.43-.15,16.25-.16,24.85.29l-35.09,39,37.57,56.23Z"/>
        <path class="cls-1" d="M393.43,303.95l-.28-41.88c-.05-6.75-5.05-12.15-11.07-13.25-9.71-1.76-18.57,4.73-18.65,14.88l-.34,40.32-19.49-.18v-95.68s19.43-.19,19.43-.19l.35,33.23c12.73-12,32.13-11.55,43.22,1.17,4.38,5.02,6.2,12.87,6.23,19.54l.22,42.11-19.63-.07Z"/>
        <path class="cls-1" d="M211.82,292.67c-9.39,14.65-33.72,13.98-43.77,4.17-5.86-5.72-6.73-14.44-3.62-22.75,5.99-16.01,30.82-14.48,44.6-14.4.84-3.31.45-7.25-2.09-9.95-1.72-1.83-5.63-3.51-8.78-3.78-6.82-.58-13.01,1.51-15.08,8.49h-18.54c1.27-22.79,31.63-26.41,49.3-20.02,8.73,3.15,14.69,11.16,14.78,20.58l.3,29.76c1.74,1.03,4.16,1.75,6.48,2.24l.18,16.02c-10.14-.26-20.93,2.76-23.75-10.37ZM209.3,272.73c-8.9.22-27.82-2.94-26.92,9.51.32,4.42,3.98,7.2,8.75,7.54s10.19-.74,13.77-4.19c3.19-3.06,4.8-7.93,4.4-12.86Z"/>
        <path class="cls-1" d="M324.17,299.54c-12.82,6.19-27.63,5.97-40.07.39-8.42-3.77-14.08-11.41-13.73-20.31l17.73.09c1.34,3.68,3.3,7.2,6.84,8.62,9.05,3.65,23.2,1.89,22.16-6.79-.27-2.31-3.11-4.53-5.78-4.96l-21.62-3.53c-5.86-.96-12.54-3.73-15.6-8.96-6.46-11.01-.61-24.34,10.99-29.21,17.04-7.15,48.39-3.5,49.92,19.56l-17.91.04c-3.41-9.93-16.64-11.17-24.23-6.63-1.49.89-2.89,3.98-2.78,5.5.13,1.84,2.94,4.44,4.96,4.74l18.5,2.72c5.98.88,13.74,2.98,18,7.62,8.8,9.61,4.6,25.32-7.37,31.1Z"/>
        <polygon class="cls-1" points="262.48 303.86 243 304.01 243 208.01 262.46 208.02 262.48 303.86"/>
        <polygon class="cls-1" points="440.01 303.8 420.46 303.75 420.52 233.41 439.98 233.39 440.01 303.8"/>
        <path class="cls-1" d="M431.49,226.9c-6.15.72-10.56-3.4-11.07-8.45s2.97-9.69,8.57-10.34,9.81,2.76,10.69,7.49c.92,4.99-1.93,10.57-8.19,11.31Z"/>
        <path class="cls-2" d="M209.3,272.73c.4,4.93-1.21,9.79-4.4,12.86-3.59,3.45-8.83,4.53-13.77,4.19s-8.43-3.12-8.75-7.54c-.89-12.45,18.02-9.29,26.92-9.51Z"/>
      </g>
    </g>
  </g>
</svg>