<svg width="62" height="38" viewBox="0 0 62 38" fill="none" xmlns="http://www.w3.org/2000/svg">
<path d="M61.001 21.4155C61.7687 22.1834 61.7687 23.4282 61.001 24.1961L54.3875 30.8101L47.7741 37.4241C47.0064 38.192 45.7616 38.192 44.9938 37.4241L39.7706 32.2004C39.0028 31.4325 39.0028 30.1877 39.7706 29.4198L44.9938 24.1961C45.7616 23.4282 45.7616 22.1834 44.9938 21.4155L40.1603 16.5816C39.3925 15.8137 38.1478 15.8137 37.38 16.5816L32.1567 21.8053C31.389 22.5731 30.1442 22.5731 29.3764 21.8053L24.1532 16.5816C23.3854 15.8137 22.1407 15.8137 21.3729 16.5816L16.5713 21.3835C15.8035 22.1514 15.8035 23.3963 16.5713 24.1641L21.7946 29.3878C22.5624 30.1557 22.5624 31.4005 21.7946 32.1684L16.5713 37.3921C15.8035 38.16 14.5588 38.16 13.791 37.3921L7.17761 30.7781L0.575837 24.1612C-0.191946 23.3933 -0.191946 22.1485 0.575837 21.3806L21.3816 0.57589C22.1494 -0.191963 23.3941 -0.191963 24.1619 0.57589L29.3852 5.79962C30.1529 6.56747 31.3977 6.56747 32.1655 5.79962L37.3858 0.57589C38.1536 -0.191963 39.3983 -0.191963 40.1661 0.57589L46.5847 6.99503L46.7795 7.1899L54.3905 14.8015L54.5853 14.9964L61.0039 21.4155H61.001Z" fill="white"/>
</svg>
